<svg width="32" height="33" viewBox="0 0 32 33" fill="none" xmlns="http://www.w3.org/2000/svg">
<path d="M26.4001 5.3C26.8418 5.3 27.2001 5.65818 27.2001 6.1V12.5C27.2001 12.9418 26.8418 13.3 26.4001 13.3C25.9583 13.3 25.6001 12.9418 25.6001 12.5V8.03135L18.1655 15.4657C18.0156 15.6157 17.8121 15.7 17.5999 15.7C17.3877 15.7 17.1842 15.6157 17.0341 15.4657L14.4 12.8314L6.16573 21.0658C5.85332 21.3781 5.34679 21.3781 5.03437 21.0658C4.72194 20.7533 4.72194 20.2467 5.03437 19.9342L13.8344 11.1343C13.9844 10.9843 14.1879 10.9 14.4001 10.9C14.6122 10.9 14.8157 10.9843 14.9658 11.1343L17.5999 13.7686L24.4687 6.9H20.0001C19.5583 6.9 19.2001 6.54183 19.2001 6.1C19.2001 5.65818 19.5583 5.3 20.0001 5.3H26.4001ZM19.3044 18.8074C19.7897 20.5371 18.7561 22.3274 17.0154 22.772L16.2777 22.9605C16.2538 23.2037 16.2415 23.4502 16.2415 23.7C16.2415 24.0002 16.2593 24.2962 16.2937 24.5867L16.853 24.719C18.6441 25.1426 19.7097 26.9859 19.1828 28.7493L18.9805 29.4258C19.3921 29.751 19.8397 30.0298 20.3161 30.2544L20.8361 29.7038C22.0997 28.3658 24.229 28.3669 25.4913 29.7062L26.0311 30.279C26.4989 30.0632 26.9396 29.7954 27.346 29.4829L27.0962 28.5922C26.6109 26.8624 27.6445 25.0722 29.3852 24.6275L30.1221 24.4392C30.146 24.1962 30.1583 23.9496 30.1583 23.7C30.1583 23.3995 30.1405 23.1034 30.106 22.8126L29.5476 22.6805C27.7565 22.2571 26.6909 20.4136 27.2178 18.6502L27.4197 17.9746C27.0082 17.6493 26.5605 17.3704 26.0841 17.1456L25.5645 17.6957C24.3009 19.0338 22.1716 19.0326 20.9093 17.6933L20.3695 17.1205C19.9017 17.3363 19.461 17.604 19.0545 17.9165L19.3044 18.8074ZM23.1999 25.3C22.3162 25.3 21.5999 24.5837 21.5999 23.7C21.5999 22.8163 22.3162 22.1 23.1999 22.1C24.0836 22.1 24.7999 22.8163 24.7999 23.7C24.7999 24.5837 24.0836 25.3 23.1999 25.3Z" fill="#B9BBBE"/>
</svg>
