<svg width="32" height="33" viewBox="0 0 32 33" fill="none" xmlns="http://www.w3.org/2000/svg">
<path d="M14.0656 3.87756C15.1829 2.9349 16.8171 2.9349 17.9344 3.87756L26.9344 11.4703C27.6101 12.0403 28 12.8793 28 13.7633V26.8339C28 28.1225 26.9553 29.1672 25.6667 29.1672H21.6667C20.378 29.1672 19.3333 28.1225 19.3333 26.8339V20.1672C19.3333 19.6149 18.8856 19.1672 18.3333 19.1672H13.6667C13.1144 19.1672 12.6667 19.6149 12.6667 20.1672V26.8339C12.6667 28.1225 11.622 29.1672 10.3333 29.1672H6.33333C5.04467 29.1672 4 28.1225 4 26.8339V13.7633C4 12.8793 4.38988 12.0403 5.06555 11.4703L14.0656 3.87756Z" fill="#34A853"/>
</svg>
