<svg width="32" height="33" viewBox="0 0 32 33" fill="none" xmlns="http://www.w3.org/2000/svg">
<path d="M8.11548 10.8333C8.74791 7.22368 11.8994 4.5 15.6666 4.5C19.4338 4.5 22.5853 7.22368 23.2178 10.8333H23.3333C26.2788 10.8333 28.6666 13.2211 28.6666 16.1667C28.6666 16.4161 28.6496 16.6616 28.6164 16.902C27.0266 15.0249 24.6525 13.8333 22 13.8333C17.5517 13.8333 13.8862 17.1845 13.3904 21.5H7.99996C5.05444 21.5 2.66663 19.1121 2.66663 16.1667C2.66663 13.2211 5.05444 10.8333 7.99999 10.8333H8.11548ZM29.3333 22.5C29.3333 18.4499 26.0501 15.1667 22 15.1667C17.9498 15.1667 14.6666 18.4499 14.6666 22.5C14.6666 26.5501 17.9498 29.8333 22 29.8333C26.0501 29.8333 29.3333 26.5501 29.3333 22.5ZM21.3333 18.5C21.3333 18.1319 21.6318 17.8333 22 17.8333C22.3681 17.8333 22.6666 18.1319 22.6666 18.5V24.8905L24.8618 22.6952C25.1222 22.4349 25.5444 22.4349 25.8048 22.6952C26.065 22.9556 26.065 23.3777 25.8048 23.6381L22.4714 26.9715C22.211 27.2317 21.7889 27.2317 21.5285 26.9715L18.1952 23.6381C17.9349 23.3777 17.9349 22.9556 18.1952 22.6952C18.4556 22.4349 18.8777 22.4349 19.1381 22.6952L21.3333 24.8905V18.5Z" fill="#B9BBBE"/>
</svg>
