<svg width="32" height="33" viewBox="0 0 32 33" fill="none" xmlns="http://www.w3.org/2000/svg">
<path d="M23.2001 3.7C22.7583 3.7 22.4001 4.05817 22.4001 4.5C22.4001 4.94182 22.7583 5.3 23.2001 5.3H26.0687L18.4001 12.9686L14.1657 8.73432C13.8533 8.42188 13.3468 8.42188 13.0344 8.73432L5.03437 16.7342C4.72194 17.0467 4.72194 17.5533 5.03437 17.8658C5.34679 18.1781 5.85332 18.1781 6.16573 17.8658L13.6001 10.4314L17.8343 14.6657C18.1468 14.9781 18.6533 14.9781 18.9658 14.6657L27.2001 6.43137V9.3C27.2001 9.74182 27.5583 10.1 28.0001 10.1C28.4418 10.1 28.8001 9.74182 28.8001 9.3V4.5C28.8001 4.05817 28.4418 3.7 28.0001 3.7H23.2001ZM24.8001 14.9C24.3583 14.9 24.0001 15.2582 24.0001 15.7V28.5C24.0001 28.9418 24.3583 29.3 24.8001 29.3C25.2418 29.3 25.6001 28.9418 25.6001 28.5V15.7C25.6001 15.2582 25.2418 14.9 24.8001 14.9ZM12.0001 18.1C11.5582 18.1 11.2001 18.4582 11.2001 18.9V28.5C11.2001 28.9418 11.5582 29.3 12.0001 29.3C12.4419 29.3 12.8001 28.9418 12.8001 28.5V18.9C12.8001 18.4582 12.4419 18.1 12.0001 18.1ZM17.6001 22.1C17.6001 21.6582 17.9583 21.3 18.4001 21.3C18.8418 21.3 19.2001 21.6582 19.2001 22.1V28.5C19.2001 28.9418 18.8418 29.3 18.4001 29.3C17.9583 29.3 17.6001 28.9418 17.6001 28.5V22.1ZM4.80005 23.7C4.80005 23.2582 5.15823 22.9 5.60005 22.9C6.04188 22.9 6.40005 23.2582 6.40005 23.7V28.5C6.40005 28.9418 6.04188 29.3 5.60005 29.3C5.15823 29.3 4.80005 28.9418 4.80005 28.5V23.7Z" fill="#34A853"/>
</svg>
