<svg width="32" height="33" viewBox="0 0 32 33" fill="none" xmlns="http://www.w3.org/2000/svg">
<path d="M25 27.1667H6.99996C4.68925 27.1667 2.80096 25.358 2.67348 23.0792L2.66663 22.8333V8.83333C2.66663 7.24552 3.90017 5.94581 5.46123 5.84025L5.66663 5.83333H22.3333C23.9212 5.83333 25.2208 7.06688 25.3264 8.62793L25.3333 8.83333V9.83333H26.3333C27.9212 9.83333 29.2208 11.0669 29.3264 12.6279L29.3333 12.8333V22.8333C29.3333 25.144 27.5246 27.0323 25.2458 27.1599L25 27.1667H6.99996H25ZM6.99996 25.1667H25C26.2242 25.1667 27.2282 24.2239 27.3256 23.0247L27.3333 22.8333V12.8333C27.3333 12.3271 26.957 11.9087 26.469 11.8425L26.3333 11.8333H25.3333V22.1667C25.3333 22.6729 24.957 23.0913 24.469 23.1576L24.3333 23.1667C23.827 23.1667 23.4086 22.7904 23.3424 22.3024L23.3333 22.1667V8.83333C23.3333 8.32707 22.957 7.90868 22.469 7.84247L22.3333 7.83333H5.66663C5.16036 7.83333 4.74197 8.20953 4.67576 8.69764L4.66663 8.83333V22.8333C4.66663 24.0576 5.60944 25.0616 6.80859 25.1589L6.99996 25.1667H25H6.99996ZM16.328 19.8333H20.3362C20.8886 19.8333 21.3362 20.2811 21.3362 20.8333C21.3362 21.3396 20.9601 21.758 20.472 21.8243L20.3362 21.8333H16.328C15.7757 21.8333 15.328 21.3856 15.328 20.8333C15.328 20.3271 15.7042 19.9087 16.1922 19.8424L16.328 19.8333H20.3362H16.328ZM12.3243 15.1727C12.8766 15.1727 13.3243 15.6204 13.3243 16.1727V20.8333C13.3243 21.3856 12.8766 21.8333 12.3243 21.8333H7.66364C7.11136 21.8333 6.66364 21.3856 6.66364 20.8333V16.1727C6.66364 15.6204 7.11136 15.1727 7.66364 15.1727H12.3243ZM11.3243 17.1727H8.66364V19.8333H11.3243V17.1727ZM16.328 15.1727H20.3362C20.8886 15.1727 21.3362 15.6204 21.3362 16.1727C21.3362 16.6789 20.9601 17.0973 20.472 17.1635L20.3362 17.1727H16.328C15.7757 17.1727 15.328 16.7249 15.328 16.1727C15.328 15.6664 15.7042 15.248 16.1922 15.1817L16.328 15.1727H20.3362H16.328ZM7.66364 10.5033H20.3362C20.8886 10.5033 21.3362 10.951 21.3362 11.5033C21.3362 12.0096 20.9601 12.4279 20.472 12.4942L20.3362 12.5033H7.66364C7.11136 12.5033 6.66364 12.0556 6.66364 11.5033C6.66364 10.997 7.03984 10.5786 7.52795 10.5124L7.66364 10.5033H20.3362H7.66364Z" fill="#B9BBBE"/>
</svg>
