<svg width="32" height="33" viewBox="0 0 32 33" fill="none" xmlns="http://www.w3.org/2000/svg">
<path d="M13.3988 21.0612L21.7412 9.75995C22.0174 9.38582 22.5282 9.27459 22.935 9.50004C23.301 9.70296 23.4806 10.1219 23.3883 10.519L23.3474 10.6502L18.1872 23.7155C17.6272 25.1335 16.0238 25.8289 14.6059 25.2689C14.4946 25.2249 14.3863 25.1739 14.2816 25.1159C12.948 24.3765 12.4661 22.696 13.2054 21.3624L13.2972 21.2087L13.3988 21.0612L21.7412 9.75995L13.3988 21.0612ZM18.4666 17.5636L15.0079 22.2489L14.9546 22.332C14.7508 22.6996 14.8836 23.1628 15.2512 23.3665L15.3406 23.4088C15.692 23.5476 16.085 23.4063 16.2724 23.0919L16.3271 22.9808L18.4666 17.5636ZM24.8126 10.3853C25.8186 11.2004 26.7291 12.1678 27.5088 13.2813C28.2082 14.28 28.8815 15.4895 29.2688 16.4791C29.47 16.9935 29.2163 17.5735 28.7019 17.7747C28.1876 17.976 27.6075 17.7221 27.4063 17.2079C27.2766 16.8764 27.1035 16.5063 26.9032 16.1255L24.1706 17.7032C23.6923 17.9793 23.0807 17.8155 22.8046 17.3372C22.5514 16.8987 22.668 16.3483 23.0576 16.0468L23.1706 15.9711L25.8616 14.4153L25.5543 13.9969C25.1226 13.4336 24.65 12.9178 24.144 12.4508L24.651 11.1651C24.7015 11.0371 24.7399 10.9072 24.7667 10.7764L24.7983 10.58L24.8126 10.3853ZM21.3078 8.30366C21.1091 8.41907 20.9259 8.56586 20.7656 8.74183L20.6134 8.92746L19.8922 9.9047C18.9564 9.57946 17.9847 9.369 17.0002 9.27744L16.9999 12.8412C16.9999 13.3935 16.5522 13.8412 15.9999 13.8412C15.4936 13.8412 15.0752 13.465 15.009 12.9769L14.9999 12.8412L14.9994 9.25554C12.8704 9.40691 10.7539 10.1191 8.87839 11.4323C7.79046 12.1941 6.8419 13.1953 6.0534 14.3719L8.82968 15.9747C9.30798 16.2508 9.47186 16.8624 9.19571 17.3407C8.94259 17.7791 8.40759 17.9533 7.95176 17.7667L7.82968 17.7067L5.0641 16.1107C4.89374 16.4657 4.73555 16.8311 4.58994 17.2057C4.38986 17.7205 3.81035 17.9756 3.29559 17.7756C2.78082 17.5755 2.52571 16.996 2.72579 16.4812C3.80106 13.7148 5.49818 11.3576 7.73123 9.79398C11.8538 6.90735 16.977 6.51598 21.3078 8.30366Z" fill="#34A853"/>
</svg>
