<svg width="32" height="33" viewBox="0 0 32 33" fill="none" xmlns="http://www.w3.org/2000/svg">
<path d="M16.0166 3.5C16.9952 3.51128 17.97 3.62435 18.9252 3.83739C19.3423 3.93039 19.6542 4.27801 19.7015 4.70261L19.9284 6.73841C20.0311 7.67315 20.8203 8.38112 21.7612 8.38211C22.014 8.38251 22.2643 8.32984 22.4979 8.22644L24.3655 7.40608C24.7539 7.23545 25.2076 7.32848 25.4976 7.63816C26.8472 9.07952 27.8523 10.8082 28.4372 12.6941C28.5634 13.1008 28.4183 13.5427 28.0755 13.7953L26.4202 15.0155C25.948 15.3624 25.6691 15.9133 25.6691 16.4993C25.6691 17.0852 25.948 17.6361 26.4212 17.9839L28.078 19.2044C28.4208 19.4569 28.5662 19.8989 28.4399 20.3057C27.8552 22.1913 26.8507 23.9199 25.5019 25.3615C25.2122 25.6711 24.7587 25.7644 24.3703 25.5941L22.4952 24.7727C21.9588 24.5379 21.3427 24.5723 20.8358 24.8653C20.3288 25.1583 19.9914 25.6749 19.927 26.2569L19.7015 28.2925C19.6551 28.7123 19.3499 29.0576 18.9391 29.1553C17.0078 29.6148 14.9956 29.6148 13.0644 29.1553C12.6536 29.0576 12.3484 28.7123 12.3019 28.2925L12.0768 26.26C12.0107 25.6791 11.6728 25.164 11.1663 24.872C10.6597 24.58 10.0446 24.5457 9.50996 24.7792L7.63447 25.6008C7.24599 25.7711 6.79241 25.6777 6.50275 25.3679C5.1532 23.9247 4.14863 22.194 3.56463 20.3064C3.43886 19.8999 3.58419 19.4581 3.92683 19.2057L5.5846 17.9844C6.05679 17.6375 6.33567 17.0865 6.33567 16.5007C6.33567 15.9147 6.05679 15.3637 5.58399 15.0164L3.92726 13.7971C3.5841 13.5446 3.43863 13.1024 3.56486 12.6954C4.14986 10.8095 5.15496 9.08085 6.50453 7.63949C6.79449 7.32981 7.24828 7.23679 7.63669 7.40741L9.50386 8.22763C10.0411 8.46341 10.6588 8.4278 11.1681 8.13025C11.6751 7.83612 12.0127 7.31896 12.0779 6.73685L12.3047 4.70261C12.3521 4.2778 12.6642 3.93005 13.0814 3.83725C14.0378 3.62456 15.0136 3.51153 16.0166 3.5ZM15.9999 12.4999C13.7908 12.4999 12 14.2908 12 16.5C12 18.7091 13.7908 20.5 15.9999 20.5C18.2091 20.5 19.9999 18.7091 19.9999 16.5C19.9999 14.2908 18.2091 12.4999 15.9999 12.4999Z" fill="#B9BBBE"/>
</svg>
