<svg width="66" height="31" viewBox="0 0 66 31" fill="none" xmlns="http://www.w3.org/2000/svg">
<g clip-path="url(#clip0)">
<g filter="url(#filter0_d)">
<path d="M53.5585 8.50072C53.4085 9.03406 53.3335 9.59239 53.3335 10.1591C53.3335 13.5591 56.1001 16.3257 59.5001 16.3257C60.0668 16.3257 60.6251 16.2507 61.1585 16.1007C60.2918 18.2341 58.1918 19.7424 55.7501 19.7424C52.5335 19.7424 49.9168 17.1257 49.9168 13.9091C49.9168 11.4674 51.4251 9.36739 53.5585 8.50072ZM55.7501 6.40906C51.6085 6.40906 48.2501 9.76739 48.2501 13.9091C48.2501 18.0507 51.6085 21.4091 55.7501 21.4091C59.8918 21.4091 63.2501 18.0507 63.2501 13.9091C63.2501 13.5257 63.2168 13.1424 63.1668 12.7757C62.3501 13.9174 61.0168 14.6591 59.5001 14.6591C57.0168 14.6591 55.0001 12.6424 55.0001 10.1591C55.0001 8.65072 55.7418 7.30906 56.8835 6.49239C56.5168 6.44239 56.1335 6.40906 55.7501 6.40906Z" fill="white"/>
</g>
</g>
<path d="M15.7502 11.75C17.8127 11.75 19.5002 13.4375 19.5002 15.5C19.5002 17.5625 17.8127 19.25 15.7502 19.25C13.6877 19.25 12.0002 17.5625 12.0002 15.5C12.0002 13.4375 13.6877 11.75 15.7502 11.75ZM15.7502 9.25C12.3002 9.25 9.50024 12.05 9.50024 15.5C9.50024 18.95 12.3002 21.75 15.7502 21.75C19.2002 21.75 22.0002 18.95 22.0002 15.5C22.0002 12.05 19.2002 9.25 15.7502 9.25ZM3.25024 16.75H5.75024C6.43774 16.75 7.00024 16.1875 7.00024 15.5C7.00024 14.8125 6.43774 14.25 5.75024 14.25H3.25024C2.56274 14.25 2.00024 14.8125 2.00024 15.5C2.00024 16.1875 2.56274 16.75 3.25024 16.75ZM25.7502 16.75H28.2502C28.9377 16.75 29.5002 16.1875 29.5002 15.5C29.5002 14.8125 28.9377 14.25 28.2502 14.25H25.7502C25.0627 14.25 24.5002 14.8125 24.5002 15.5C24.5002 16.1875 25.0627 16.75 25.7502 16.75ZM14.5002 3V5.5C14.5002 6.1875 15.0627 6.75 15.7502 6.75C16.4377 6.75 17.0002 6.1875 17.0002 5.5V3C17.0002 2.3125 16.4377 1.75 15.7502 1.75C15.0627 1.75 14.5002 2.3125 14.5002 3ZM14.5002 25.5V28C14.5002 28.6875 15.0627 29.25 15.7502 29.25C16.4377 29.25 17.0002 28.6875 17.0002 28V25.5C17.0002 24.8125 16.4377 24.25 15.7502 24.25C15.0627 24.25 14.5002 24.8125 14.5002 25.5ZM8.23774 6.225C7.75024 5.7375 6.95024 5.7375 6.47524 6.225C5.98774 6.7125 5.98774 7.5125 6.47524 7.9875L7.80024 9.3125C8.28774 9.8 9.08774 9.8 9.56274 9.3125C10.0377 8.825 10.0502 8.025 9.56274 7.55L8.23774 6.225ZM23.7002 21.6875C23.2127 21.2 22.4127 21.2 21.9377 21.6875C21.4502 22.175 21.4502 22.975 21.9377 23.45L23.2627 24.775C23.7502 25.2625 24.5502 25.2625 25.0252 24.775C25.5127 24.2875 25.5127 23.4875 25.0252 23.0125L23.7002 21.6875ZM25.0252 7.9875C25.5127 7.5 25.5127 6.7 25.0252 6.225C24.5377 5.7375 23.7377 5.7375 23.2627 6.225L21.9377 7.55C21.4502 8.0375 21.4502 8.8375 21.9377 9.3125C22.4252 9.7875 23.2252 9.8 23.7002 9.3125L25.0252 7.9875ZM9.56274 23.45C10.0502 22.9625 10.0502 22.1625 9.56274 21.6875C9.07524 21.2 8.27524 21.2 7.80024 21.6875L6.47524 23.0125C5.98774 23.5 5.98774 24.3 6.47524 24.775C6.96274 25.25 7.76274 25.2625 8.23774 24.775L9.56274 23.45Z" fill="#72767D"/>
<defs>
<filter id="filter0_d" x="40.2501" y="-1.59094" width="31" height="31" filterUnits="userSpaceOnUse" color-interpolation-filters="sRGB">
<feFlood flood-opacity="0" result="BackgroundImageFix"/>
<feColorMatrix in="SourceAlpha" type="matrix" values="0 0 0 0 0 0 0 0 0 0 0 0 0 0 0 0 0 0 127 0" result="hardAlpha"/>
<feOffset/>
<feGaussianBlur stdDeviation="4"/>
<feComposite in2="hardAlpha" operator="out"/>
<feColorMatrix type="matrix" values="0 0 0 0 1 0 0 0 0 1 0 0 0 0 1 0 0 0 0.52 0"/>
<feBlend mode="normal" in2="BackgroundImageFix" result="effect1_dropShadow"/>
<feBlend mode="normal" in="SourceGraphic" in2="effect1_dropShadow" result="shape"/>
</filter>
<clipPath id="clip0">
<rect width="20" height="20" fill="white" transform="translate(45.7501 3.90906)"/>
</clipPath>
</defs>
</svg>
