<svg width="66" height="31" viewBox="0 0 66 31" fill="none" xmlns="http://www.w3.org/2000/svg">
<path d="M53.3083 8.59164C53.1583 9.12497 53.0833 9.6833 53.0833 10.25C53.0833 13.65 55.85 16.4166 59.25 16.4166C59.8167 16.4166 60.375 16.3416 60.9083 16.1916C60.0417 18.325 57.9417 19.8333 55.5 19.8333C52.2833 19.8333 49.6667 17.2166 49.6667 14C49.6667 11.5583 51.175 9.4583 53.3083 8.59164ZM55.5 6.49997C51.3583 6.49997 48 9.8583 48 14C48 18.1416 51.3583 21.5 55.5 21.5C59.6417 21.5 63 18.1416 63 14C63 13.6166 62.9667 13.2333 62.9167 12.8666C62.1 14.0083 60.7667 14.75 59.25 14.75C56.7667 14.75 54.75 12.7333 54.75 10.25C54.75 8.74164 55.4917 7.39997 56.6333 6.5833C56.2667 6.5333 55.8833 6.49997 55.5 6.49997Z" fill="#777777"/>
<g clip-path="url(#clip0)">
<g filter="url(#filter0_d)">
<path d="M15.5001 11.8409C17.5626 11.8409 19.2501 13.5284 19.2501 15.5909C19.2501 17.6534 17.5626 19.3409 15.5001 19.3409C13.4376 19.3409 11.7501 17.6534 11.7501 15.5909C11.7501 13.5284 13.4376 11.8409 15.5001 11.8409ZM15.5001 9.34091C12.0501 9.34091 9.25012 12.1409 9.25012 15.5909C9.25012 19.0409 12.0501 21.8409 15.5001 21.8409C18.9501 21.8409 21.7501 19.0409 21.7501 15.5909C21.7501 12.1409 18.9501 9.34091 15.5001 9.34091ZM3.00012 16.8409H5.50012C6.18762 16.8409 6.75012 16.2784 6.75012 15.5909C6.75012 14.9034 6.18762 14.3409 5.50012 14.3409H3.00012C2.31262 14.3409 1.75012 14.9034 1.75012 15.5909C1.75012 16.2784 2.31262 16.8409 3.00012 16.8409ZM25.5001 16.8409H28.0001C28.6876 16.8409 29.2501 16.2784 29.2501 15.5909C29.2501 14.9034 28.6876 14.3409 28.0001 14.3409H25.5001C24.8126 14.3409 24.2501 14.9034 24.2501 15.5909C24.2501 16.2784 24.8126 16.8409 25.5001 16.8409ZM14.2501 3.09091V5.59091C14.2501 6.27841 14.8126 6.84091 15.5001 6.84091C16.1876 6.84091 16.7501 6.27841 16.7501 5.59091V3.09091C16.7501 2.40341 16.1876 1.84091 15.5001 1.84091C14.8126 1.84091 14.2501 2.40341 14.2501 3.09091ZM14.2501 25.5909V28.0909C14.2501 28.7784 14.8126 29.3409 15.5001 29.3409C16.1876 29.3409 16.7501 28.7784 16.7501 28.0909V25.5909C16.7501 24.9034 16.1876 24.3409 15.5001 24.3409C14.8126 24.3409 14.2501 24.9034 14.2501 25.5909ZM7.98762 6.31591C7.50012 5.82841 6.70012 5.82841 6.22512 6.31591C5.73762 6.80341 5.73762 7.60341 6.22512 8.07841L7.55012 9.40341C8.03762 9.89091 8.83762 9.89091 9.31262 9.40341C9.78762 8.91591 9.80012 8.11591 9.31262 7.64091L7.98762 6.31591ZM23.4501 21.7784C22.9626 21.2909 22.1626 21.2909 21.6876 21.7784C21.2001 22.2659 21.2001 23.0659 21.6876 23.5409L23.0126 24.8659C23.5001 25.3534 24.3001 25.3534 24.7751 24.8659C25.2626 24.3784 25.2626 23.5784 24.7751 23.1034L23.4501 21.7784ZM24.7751 8.07841C25.2626 7.59091 25.2626 6.79091 24.7751 6.31591C24.2876 5.82841 23.4876 5.82841 23.0126 6.31591L21.6876 7.64091C21.2001 8.12841 21.2001 8.92841 21.6876 9.40341C22.1751 9.87841 22.9751 9.89091 23.4501 9.40341L24.7751 8.07841ZM9.31262 23.5409C9.80012 23.0534 9.80012 22.2534 9.31262 21.7784C8.82512 21.2909 8.02512 21.2909 7.55012 21.7784L6.22512 23.1034C5.73762 23.5909 5.73762 24.3909 6.22512 24.8659C6.71262 25.3409 7.51262 25.3534 7.98762 24.8659L9.31262 23.5409Z" fill="white"/>
</g>
</g>
<defs>
<filter id="filter0_d" x="-3.24988" y="-3.15909" width="37.5" height="37.5" filterUnits="userSpaceOnUse" color-interpolation-filters="sRGB">
<feFlood flood-opacity="0" result="BackgroundImageFix"/>
<feColorMatrix in="SourceAlpha" type="matrix" values="0 0 0 0 0 0 0 0 0 0 0 0 0 0 0 0 0 0 127 0" result="hardAlpha"/>
<feOffset/>
<feGaussianBlur stdDeviation="2.5"/>
<feComposite in2="hardAlpha" operator="out"/>
<feColorMatrix type="matrix" values="0 0 0 0 1 0 0 0 0 1 0 0 0 0 1 0 0 0 1 0"/>
<feBlend mode="normal" in2="BackgroundImageFix" result="effect1_dropShadow"/>
<feBlend mode="normal" in="SourceGraphic" in2="effect1_dropShadow" result="shape"/>
</filter>
<clipPath id="clip0">
<rect width="30" height="30" fill="white" transform="translate(0.5 0.590912)"/>
</clipPath>
</defs>
</svg>
