<svg width="24" height="25" viewBox="0 0 24 25" fill="none" xmlns="http://www.w3.org/2000/svg">
<path d="M12.0002 2.82321C16.05 2.82321 19.3568 6.01796 19.4959 10.0722L19.5002 10.3232V14.4202L20.8802 17.5762C20.9491 17.7342 20.9848 17.9046 20.9848 18.077C20.9848 18.7674 20.4251 19.327 19.7348 19.327L15.0002 19.3286C15.0002 20.9854 13.657 22.3286 12.0002 22.3286C10.4024 22.3286 9.09647 21.0795 9.00519 19.5047L8.99967 19.3262L4.27497 19.327C4.10364 19.327 3.93413 19.2918 3.77697 19.2235C3.14377 18.9484 2.85342 18.2122 3.12846 17.579L4.50012 14.4211V10.3231C4.50072 6.16832 7.85221 2.82321 12.0002 2.82321ZM13.4996 19.3262L10.5002 19.3286C10.5002 20.157 11.1718 20.8286 12.0002 20.8286C12.7798 20.8286 13.4206 20.2336 13.4932 19.473L13.4996 19.3262ZM12.0002 4.32321C8.67999 4.32321 6.0006 6.99747 6.00012 10.3232V14.7328L4.65613 17.827H19.3526L18.0002 14.7338L18.0002 10.3361L17.9966 10.1109C17.8854 6.87739 15.2418 4.32321 12.0002 4.32321Z" fill="white"/>
<ellipse cx="16.8" cy="8.02696" rx="4.8" ry="4.8" fill="#FF4444"/>
</svg>
