<svg xmlns="http://www.w3.org/2000/svg" viewBox="0 0 28 28" width="28" height="28">
<path fill="white" fill-rule="evenodd" d="M8.5 6a3.5 3.5 0 0 0-2.926 5.422 8.527 8.527 0 0 1 4.848-4.848A3.482 3.482 0 0 0 8.5 6zM4 9.5c0 1.19.463 2.274 1.218 3.079A8.5 8.5 0 0 0 13.5 23h.5v-1h-.5a7.5 7.5 0 1 1 7.5-7.5v.5h1v-.5a8.53 8.53 0 0 0-.218-1.921 4.5 4.5 0 0 0-6.36-6.36 8.527 8.527 0 0 0-3.843-.001A4.5 4.5 0 0 0 4 9.5zm12.578-2.926a8.527 8.527 0 0 1 4.848 4.848 3.5 3.5 0 0 0-4.848-4.848zM13 14V9h1v6h-4v-1h3zm6 6h-4v1h4v4h1v-4h4v-1h-4v-4h-1v4z"></path>
</svg>