<svg width="28" height="28" viewBox="0 0 28 28" fill="none" xmlns="http://www.w3.org/2000/svg">
<path d="M6 7H20C20.2652 7 20.5196 7.10536 20.7071 7.29289C20.8946 7.48043 21 7.73478 21 8C21 8.26522 20.8946 8.51957 20.7071 8.70711C20.5196 8.89464 20.2652 9 20 9H6V7Z" fill="white"/>
<path d="M6 13H22C22.2652 13 22.5196 13.1054 22.7071 13.2929C22.8946 13.4804 23 13.7348 23 14C23 14.2652 22.8946 14.5196 22.7071 14.7071C22.5196 14.8946 22.2652 15 22 15H6V13Z" fill="white"/>
<path d="M6 19H20C20.2652 19 20.5196 19.1054 20.7071 19.2929C20.8946 19.4804 21 19.7348 21 20C21 20.2652 20.8946 20.5196 20.7071 20.7071C20.5196 20.8946 20.2652 21 20 21H6V19Z" fill="white"/>
<path d="M6 9C5.73478 9 5.48043 8.89464 5.29289 8.70711C5.10536 8.51957 5 8.26522 5 8C5 7.73478 5.10536 7.48043 5.29289 7.29289C5.48043 7.10536 5.73478 7 6 7V9ZM6 15C5.73478 15 5.48043 14.8946 5.29289 14.7071C5.10536 14.5196 5 14.2652 5 14C5 13.7348 5.10536 13.4804 5.29289 13.2929C5.48043 13.1054 5.73478 13 6 13V15ZM6 21C5.73478 21 5.48043 20.8946 5.29289 20.7071C5.10536 20.5196 5 20.2652 5 20C5 19.7348 5.10536 19.4804 5.29289 19.2929C5.48043 19.1054 5.73478 19 6 19V21Z" fill="white"/>
</svg>