<svg xmlns="http://www.w3.org/2000/svg" viewBox="0 0 25 23" width="25" height="23">
<path fill="white" fill-rule="evenodd" clip-rule="evenodd" 
d="M13.402 0L6.78144 6.71532C6.67313 6.82518 6.5917 6.95862 6.54354 7.10518L5.13578 11.3889C4.89843 12.1111 5.08375 12.9074 5.61449 13.4458L5.68264 13.5149L0 19.2789L8.12695 22.4056L11.2874 19.1999L11.3556 19.269C11.8863 19.8073 12.6713 19.9953 13.3834 19.7546L17.6013 18.3285C17.7493 18.2784 17.8835 18.1945 17.9931 18.0832L24.6912 11.2892L23.9857 10.5837L17.515 17.147L7.70658 7.19818L14.1076 0.705575L13.402 0ZM6.07573 11.7067L7.24437 8.15061L16.576 17.6158L13.0701 18.8012C12.7141 18.9215 12.3215 18.8275 12.0562 18.5584L6.31509 12.7351C6.04972 12.466 5.95706 12.0678 6.07573 11.7067ZM6.30539 14.3045L10.509 18.5682L7.87935 21.2355L1.78414 18.8904L6.30539 14.3045Z"></path>
</svg>