<svg width="20" height="19" viewBox="0 0 20 19" fill="none" xmlns="http://www.w3.org/2000/svg">
<path d="M4.08664 4.75C4.56096 2.04276 6.92458 0 9.75 0C12.5754 0 14.939 2.04276 15.4134 4.75H15.5C17.7091 4.75 19.5 6.54086 19.5 8.75C19.5 8.9371 19.4872 9.1212 19.4623 9.3015C19.0082 8.7654 18.4688 8.3038 17.8651 7.9378C17.5279 6.95576 16.5964 6.25 15.5 6.25L14.7439 6.25002C14.344 6.25004 14.0144 5.93631 13.9948 5.53691C13.8837 3.28125 12.018 1.5 9.75 1.5C7.48202 1.5 5.61629 3.28125 5.50523 5.53691C5.48557 5.93631 5.156 6.25004 4.75612 6.25002L4 6.25C2.61929 6.25 1.5 7.3693 1.5 8.75C1.5 10.1307 2.61929 11.25 4 11.25H8.4C8.2242 11.7263 8.1027 12.2288 8.0428 12.75H4C1.79086 12.75 0 10.9591 0 8.75C0 6.54086 1.79086 4.75 4.00002 4.75H4.08664ZM20 13.5C20 16.5376 17.5376 19 14.5 19C11.4624 19 9 16.5376 9 13.5C9 10.4624 11.4624 8 14.5 8C17.5376 8 20 10.4624 20 13.5ZM17.8536 11.1464C17.6583 10.9512 17.3417 10.9512 17.1464 11.1464L13.5 14.7929L11.8536 13.1464C11.6583 12.9512 11.3417 12.9512 11.1464 13.1464C10.9512 13.3417 10.9512 13.6583 11.1464 13.8536L13.1464 15.8536C13.3417 16.0488 13.6583 16.0488 13.8536 15.8536L17.8536 11.8536C18.0488 11.6583 18.0488 11.3417 17.8536 11.1464Z" fill="white"/>
</svg>
