<svg xmlns="http://www.w3.org/2000/svg" width="28" height="28" fill="white">
<path fill-rule="evenodd" clip-rule="evenodd" d="M11.118 6a.5.5 0 0 0-.447.276L9.809 8H5.5A1.5 1.5 0 0 0 4 9.5v10A1.5 1.5 0 0 0 5.5 21h16a1.5 1.5 0 0 0 1.5-1.5v-10A1.5 1.5 0 0 0 21.5 8h-4.309l-.862-1.724A.5.5 0 0 0 15.882 6h-4.764zm-1.342-.17A1.5 1.5 0 0 1 11.118 5h4.764a1.5 1.5 0 0 1 1.342.83L17.809 7H21.5A2.5 2.5 0 0 1 24 9.5v10a2.5 2.5 0 0 1-2.5 2.5h-16A2.5 2.5 0 0 1 3 19.5v-10A2.5 2.5 0 0 1 5.5 7h3.691l.585-1.17z"></path>
<path fill-rule="evenodd" clip-rule="evenodd" d="M13.5 18a3.5 3.5 0 1 0 0-7 3.5 3.5 0 0 0 0 7zm0 1a4.5 4.5 0 1 0 0-9 4.5 4.5 0 0 0 0 9z"></path></svg>