<svg width="26" height="18" viewBox="0 0 26 18" fill="none" xmlns="http://www.w3.org/2000/svg">
<path d="M10.5614 13.2761L18.3824 2.6812C18.6413 2.33045 19.1201 2.22618 19.5015 2.43754C19.8446 2.62778 20.013 3.02053 19.9265 3.39279L19.8881 3.51581L15.0505 15.7645C14.5255 17.0939 13.0223 17.7459 11.693 17.2209C11.5886 17.1796 11.4871 17.1318 11.389 17.0774C10.1387 16.3843 9.68693 14.8088 10.38 13.5585L10.4661 13.4144L10.5614 13.2761L18.3824 2.6812L10.5614 13.2761ZM15.3124 9.99713L12.0699 14.3896L12.0199 14.4675C11.8289 14.8121 11.9534 15.2464 12.298 15.4374L12.3818 15.477C12.7113 15.6071 13.0796 15.4746 13.2554 15.1799L13.3066 15.0758L15.3124 9.99713ZM21.2618 3.2675C22.2049 4.03164 23.0585 4.93858 23.7895 5.98248C24.4451 6.91875 25.0764 8.05263 25.4395 8.98038C25.6281 9.46263 25.3903 10.0064 24.908 10.195C24.4259 10.3838 23.882 10.1458 23.6934 9.66363C23.5718 9.35288 23.4095 9.00588 23.2218 8.64888L20.6599 10.128C20.2115 10.3869 19.6381 10.2333 19.3793 9.78488C19.1419 9.37375 19.2513 8.85775 19.6165 8.57513L19.7224 8.50413L22.2453 7.04563L21.9571 6.65338C21.5524 6.12524 21.1094 5.64165 20.635 5.20384L21.1103 3.99849C21.1576 3.87858 21.1936 3.75672 21.2188 3.63417L21.2484 3.44998L21.2618 3.2675ZM17.976 1.31593C17.7898 1.42413 17.618 1.56174 17.4678 1.72671L17.325 1.90074L16.6489 2.8169C15.7716 2.51199 14.8606 2.31469 13.9376 2.22885L13.9374 5.56991C13.9374 6.08768 13.5176 6.50738 12.9999 6.50738C12.5253 6.50738 12.133 6.15472 12.0709 5.69713L12.0624 5.56991L12.0619 2.20831C10.066 2.35023 8.08173 3.01787 6.32345 4.24902C5.30352 4.96319 4.41424 5.90182 3.67503 7.00488L6.27779 8.5075C6.72619 8.76638 6.87983 9.33975 6.62094 9.78813C6.38364 10.1991 5.88208 10.3625 5.45474 10.1875L5.34029 10.1313L2.74755 8.635C2.58784 8.96788 2.43954 9.31038 2.30303 9.66163C2.11545 10.1443 1.57217 10.3834 1.08958 10.1959C0.606978 10.0083 0.367816 9.465 0.555391 8.98238C1.56345 6.38884 3.1545 4.17898 5.24799 2.7131C9.11287 0.00688946 13.9159 -0.360023 17.976 1.31593Z" fill="white"/>
</svg>
