<svg xmlns="http://www.w3.org/2000/svg" width="28" height="28">
<path fill="white" fill-rule="evenodd" d="M19.76 6.07l-.7.7a13.4 13.4 0 011.93 2.47c.19.3.33.55.42.72l.03.04-.03.04a15 15 0 01-2.09 2.9c-1.47 1.6-3.6 3.12-6.32 3.12-.98 0-1.88-.2-2.7-.52l-.77.76c1.03.47 2.18.76 3.47.76 3.12 0 5.5-1.75 7.06-3.44a16 16 0 002.38-3.38v-.02h.01L22 10l.45.22.1-.22-.1-.22L22 10l.45-.22-.01-.02a5.1 5.1 0 00-.15-.28 16 16 0 00-2.53-3.41zM6.24 13.93l.7-.7-.27-.29a15 15 0 01-2.08-2.9L4.56 10l.03-.04a15 15 0 012.09-2.9c1.47-1.6 3.6-3.12 6.32-3.12.98 0 1.88.2 2.7.52l.77-.76A8.32 8.32 0 0013 2.94c-3.12 0-5.5 1.75-7.06 3.44a16 16 0 00-2.38 3.38v.02h-.01L4 10l-.45-.22-.1.22.1.22L4 10l-.45.22.01.02a5.5 5.5 0 00.15.28 16 16 0 002.53 3.41zm6.09-.43a3.6 3.6 0 004.24-4.24l-.93.93a2.6 2.6 0 01-2.36 2.36l-.95.95zm-1.97-3.69l-.93.93a3.6 3.6 0 014.24-4.24l-.95.95a2.6 2.6 0 00-2.36 2.36zm11.29 7.84l-.8.79a1.5 1.5 0 000 2.12l.59.59a1.5 1.5 0 002.12 0l1.8-1.8-.71-.7-1.8 1.79a.5.5 0 01-.7 0l-.59-.59a.5.5 0 010-.7l.8-.8-.71-.7zm-5.5 3.5l.35.35-.35-.35.01-.02.02-.02.02-.02a4.68 4.68 0 01.65-.5c.4-.27 1-.59 1.65-.59.66 0 1.28.33 1.73.77.44.45.77 1.07.77 1.73a2.5 2.5 0 01-.77 1.73 2.5 2.5 0 01-1.73.77h-4a.5.5 0 01-.42-.78l1-1.5 1-1.5a.5.5 0 01.07-.07zm.74.67a3.46 3.46 0 01.51-.4c.35-.24.75-.42 1.1-.42.34 0 .72.17 1.02.48.3.3.48.68.48 1.02 0 .34-.17.72-.48 1.02-.3.3-.68.48-1.02.48h-3.07l.49-.72.97-1.46zM21.2 2.5L5.5 18.2l-.7-.7L20.5 1.8l.7.7z">
</path></svg>