<svg xmlns="http://www.w3.org/2000/svg" width="28" height="28">
<path fill="white" fill-rule="evenodd" 
d="M5 10.76l-.41-.72-.03-.04.03-.04a15 15 0 012.09-2.9c1.47-1.6 3.6-3.12 6.32-3.12 2.73 0 4.85 1.53 6.33 3.12a15.01 15.01 0 012.08 2.9l.03.04-.03.04a15 15 0 01-2.09 2.9c-1.47 1.6-3.6 3.12-6.32 3.12-2.73 0-4.85-1.53-6.33-3.12a15 15 0 01-1.66-2.18zm17.45-.98L22 10l.45.22-.01.02a5.04 5.04 0 01-.15.28 16.01 16.01 0 01-2.23 3.1c-1.56 1.69-3.94 3.44-7.06 3.44-3.12 0-5.5-1.75-7.06-3.44a16 16 0 01-2.38-3.38v-.02h-.01L4 10l-.45-.22.01-.02a5.4 5.4 0 01.15-.28 16 16 0 012.23-3.1C7.5 4.69 9.88 2.94 13 2.94c3.12 0 5.5 1.75 7.06 3.44a16.01 16.01 0 012.38 3.38v.02h.01zM22 10l.45-.22.1.22-.1.22L22 10zM3.55 9.78L4 10l-.45.22-.1-.22.1-.22zm6.8.22A2.6 2.6 0 0113 7.44 2.6 2.6 0 0115.65 10 2.6 2.6 0 0113 12.56 2.6 2.6 0 0110.35 10zM13 6.44A3.6 3.6 0 009.35 10 3.6 3.6 0 0013 13.56c2 0 3.65-1.58 3.65-3.56A3.6 3.6 0 0013 6.44zm7.85 12l.8-.8.7.71-.79.8a.5.5 0 000 .7l.59.59c.2.2.5.2.7 0l1.8-1.8.7.71-1.79 1.8a1.5 1.5 0 01-2.12 0l-.59-.59a1.5 1.5 0 010-2.12zM16.5 21.5l-.35-.35a.5.5 0 00-.07.07l-1 1.5-1 1.5a.5.5 0 00.42.78h4a2.5 2.5 0 001.73-.77A2.5 2.5 0 0021 22.5a2.5 2.5 0 00-.77-1.73A2.5 2.5 0 0018.5 20a3.1 3.1 0 00-1.65.58 5.28 5.28 0 00-.69.55v.01h-.01l.35.36zm.39.32l-.97 1.46-.49.72h3.07c.34 0 .72-.17 1.02-.48.3-.3.48-.68.48-1.02 0-.34-.17-.72-.48-1.02-.3-.3-.68-.48-1.02-.48-.35 0-.75.18-1.1.42a4.27 4.27 0 00-.51.4z">
</path></svg>